<svg xmlns="http://www.w3.org/2000/svg" xmlns:xlink="http://www.w3.org/1999/xlink" width="500" zoomAndPan="magnify" viewBox="0 0 375 374.999991" height="500" preserveAspectRatio="xMidYMid meet" version="1.0"><defs><g/></defs><g fill="#fafaf9" fill-opacity="1"><g transform="translate(14.467309, 229.866913)"><g><path d="M 26.140625 1.078125 C 19.453125 1.078125 14 -0.691406 9.78125 -4.234375 C 5.570312 -7.773438 3.46875 -12.375 3.46875 -18.03125 C 3.46875 -23.914062 5.734375 -28.53125 10.265625 -31.875 C 14.804688 -35.21875 21.054688 -36.890625 29.015625 -36.890625 C 31.554688 -36.890625 34.097656 -36.6875 36.640625 -36.28125 C 39.191406 -35.882812 41.703125 -35.289062 44.171875 -34.5 L 44.171875 -38.921875 C 44.171875 -42.492188 43.054688 -45.195312 40.828125 -47.03125 C 38.597656 -48.863281 35.332031 -49.78125 31.03125 -49.78125 C 28.40625 -49.78125 25.5625 -49.359375 22.5 -48.515625 C 19.4375 -47.679688 15.957031 -46.390625 12.0625 -44.640625 L 6.09375 -56.703125 C 10.945312 -58.929688 15.660156 -60.601562 20.234375 -61.71875 C 24.804688 -62.832031 29.320312 -63.390625 33.78125 -63.390625 C 42.132812 -63.390625 48.640625 -61.378906 53.296875 -57.359375 C 57.953125 -53.335938 60.28125 -47.664062 60.28125 -40.34375 L 60.28125 0 L 44.171875 0 L 44.171875 -4.296875 C 41.546875 -2.460938 38.78125 -1.109375 35.875 -0.234375 C 32.96875 0.640625 29.722656 1.078125 26.140625 1.078125 Z M 19.09375 -18.390625 C 19.09375 -15.992188 20.128906 -14.097656 22.203125 -12.703125 C 24.273438 -11.316406 27.019531 -10.625 30.4375 -10.625 C 33.144531 -10.625 35.628906 -10.960938 37.890625 -11.640625 C 40.160156 -12.316406 42.253906 -13.289062 44.171875 -14.5625 L 44.171875 -23.875 C 42.179688 -24.664062 40.09375 -25.238281 37.90625 -25.59375 C 35.71875 -25.957031 33.425781 -26.140625 31.03125 -26.140625 C 27.289062 -26.140625 24.363281 -25.441406 22.25 -24.046875 C 20.144531 -22.660156 19.09375 -20.773438 19.09375 -18.390625 Z M 19.09375 -18.390625 "/></g></g></g><g fill="#fafaf9" fill-opacity="1"><g transform="translate(74.384529, 229.866913)"><g><path d="M 52.890625 0 L 52.890625 -5.140625 C 50.421875 -3.148438 47.671875 -1.65625 44.640625 -0.65625 C 41.617188 0.332031 38.476562 0.828125 35.21875 0.828125 C 30.84375 0.828125 26.722656 -0.00390625 22.859375 -1.671875 C 19.003906 -3.335938 15.640625 -5.601562 12.765625 -8.46875 C 9.898438 -11.332031 7.648438 -14.710938 6.015625 -18.609375 C 4.390625 -22.515625 3.578125 -26.695312 3.578125 -31.15625 C 3.578125 -35.613281 4.410156 -39.789062 6.078125 -43.6875 C 7.753906 -47.59375 10.023438 -50.976562 12.890625 -53.84375 C 15.753906 -56.707031 19.15625 -58.953125 23.09375 -60.578125 C 27.039062 -62.210938 31.238281 -63.03125 35.6875 -63.03125 C 38.71875 -63.03125 41.679688 -62.609375 44.578125 -61.765625 C 47.484375 -60.929688 50.171875 -59.722656 52.640625 -58.140625 L 52.640625 -83.5625 L 69 -87.140625 L 69 0 Z M 19.703125 -31.15625 C 19.703125 -26.144531 21.453125 -21.882812 24.953125 -18.375 C 28.453125 -14.875 32.75 -13.125 37.84375 -13.125 C 40.863281 -13.125 43.628906 -13.640625 46.140625 -14.671875 C 48.648438 -15.710938 50.816406 -17.1875 52.640625 -19.09375 L 52.640625 -43.328125 C 50.890625 -45.160156 48.722656 -46.59375 46.140625 -47.625 C 43.554688 -48.664062 40.789062 -49.1875 37.84375 -49.1875 C 32.664062 -49.1875 28.347656 -47.453125 24.890625 -43.984375 C 21.429688 -40.523438 19.703125 -36.25 19.703125 -31.15625 Z M 19.703125 -31.15625 "/></g></g></g><g fill="#fafaf9" fill-opacity="1"><g transform="translate(143.492314, 229.866913)"><g><path d="M 14.5625 -69.59375 C 12.019531 -69.59375 9.832031 -70.507812 8 -72.34375 C 6.164062 -74.175781 5.25 -76.363281 5.25 -78.90625 C 5.25 -81.457031 6.164062 -83.644531 8 -85.46875 C 9.832031 -87.300781 12.019531 -88.21875 14.5625 -88.21875 C 17.113281 -88.21875 19.300781 -87.300781 21.125 -85.46875 C 22.957031 -83.644531 23.875 -81.457031 23.875 -78.90625 C 23.875 -76.363281 22.957031 -74.175781 21.125 -72.34375 C 19.300781 -70.507812 17.113281 -69.59375 14.5625 -69.59375 Z M 22.796875 -62.1875 L 22.796875 0 L 6.453125 0 L 6.453125 -62.1875 Z M 22.796875 -62.1875 "/></g></g></g><g fill="#fafaf9" fill-opacity="1"><g transform="translate(166.289184, 229.866913)"><g><path d="M 14.328125 -18.265625 C 17.035156 -18.265625 19.34375 -17.304688 21.25 -15.390625 C 23.15625 -13.484375 24.109375 -11.175781 24.109375 -8.46875 C 24.109375 -5.84375 23.15625 -3.578125 21.25 -1.671875 C 19.34375 0.234375 17.035156 1.1875 14.328125 1.1875 C 11.703125 1.1875 9.429688 0.234375 7.515625 -1.671875 C 5.609375 -3.578125 4.65625 -5.84375 4.65625 -8.46875 C 4.65625 -11.175781 5.609375 -13.484375 7.515625 -15.390625 C 9.429688 -17.304688 11.703125 -18.265625 14.328125 -18.265625 Z M 14.328125 -18.265625 "/></g></g></g><g fill="#fafaf9" fill-opacity="1"><g transform="translate(188.727975, 229.866913)"><g><path d="M 6.453125 0 L 6.453125 -62.1875 L 22.796875 -62.1875 L 22.796875 -57.53125 C 25.023438 -59.445312 27.492188 -60.898438 30.203125 -61.890625 C 32.910156 -62.890625 35.851562 -63.390625 39.03125 -63.390625 C 43.007812 -63.390625 46.609375 -62.570312 49.828125 -60.9375 C 53.054688 -59.3125 55.707031 -57.023438 57.78125 -54.078125 C 60.25 -57.097656 63.234375 -59.40625 66.734375 -61 C 70.234375 -62.59375 74.09375 -63.390625 78.3125 -63.390625 C 85.238281 -63.390625 90.925781 -61.082031 95.375 -56.46875 C 99.832031 -51.851562 102.0625 -45.921875 102.0625 -38.671875 L 102.0625 0 L 85.71875 0 L 85.71875 -36.296875 C 85.71875 -40.191406 84.660156 -43.332031 82.546875 -45.71875 C 80.441406 -48.101562 77.597656 -49.296875 74.015625 -49.296875 C 71.546875 -49.296875 69.296875 -48.757812 67.265625 -47.6875 C 65.234375 -46.613281 63.503906 -45.082031 62.078125 -43.09375 C 62.148438 -42.375 62.226562 -41.65625 62.3125 -40.9375 C 62.394531 -40.226562 62.4375 -39.472656 62.4375 -38.671875 L 62.4375 0 L 46.078125 0 L 46.078125 -36.296875 C 46.078125 -40.191406 45.019531 -43.332031 42.90625 -45.71875 C 40.800781 -48.101562 37.957031 -49.296875 34.375 -49.296875 C 31.90625 -49.296875 29.71875 -48.816406 27.8125 -47.859375 C 25.90625 -46.910156 24.234375 -45.519531 22.796875 -43.6875 L 22.796875 0 Z M 6.453125 0 "/></g></g></g><g fill="#fafaf9" fill-opacity="1"><g transform="translate(290.539835, 229.866913)"><g><path d="M 62.1875 -7.765625 C 58.375 -4.660156 54.457031 -2.390625 50.4375 -0.953125 C 46.414062 0.472656 41.9375 1.1875 37 1.1875 C 32.3125 1.1875 27.914062 0.351562 23.8125 -1.3125 C 19.71875 -2.976562 16.175781 -5.242188 13.1875 -8.109375 C 10.207031 -10.984375 7.859375 -14.390625 6.140625 -18.328125 C 4.429688 -22.265625 3.578125 -26.5 3.578125 -31.03125 C 3.578125 -35.488281 4.390625 -39.6875 6.015625 -43.625 C 7.648438 -47.570312 9.898438 -50.992188 12.765625 -53.890625 C 15.640625 -56.796875 19.046875 -59.082031 22.984375 -60.75 C 26.921875 -62.425781 31.117188 -63.265625 35.578125 -63.265625 C 39.953125 -63.265625 44.03125 -62.410156 47.8125 -60.703125 C 51.59375 -58.992188 54.851562 -56.664062 57.59375 -53.71875 C 60.34375 -50.769531 62.492188 -47.242188 64.046875 -43.140625 C 65.597656 -39.046875 66.375 -34.613281 66.375 -29.84375 L 66.375 -25.546875 L 20.0625 -25.546875 C 21.164062 -21.648438 23.3125 -18.503906 26.5 -16.109375 C 29.6875 -13.722656 33.425781 -12.53125 37.71875 -12.53125 C 40.425781 -12.53125 42.972656 -12.96875 45.359375 -13.84375 C 47.742188 -14.71875 49.773438 -15.953125 51.453125 -17.546875 Z M 35.21875 -49.78125 C 31.476562 -49.78125 28.253906 -48.644531 25.546875 -46.375 C 22.835938 -44.101562 20.96875 -41.0625 19.9375 -37.25 L 50.375 -37.25 C 49.34375 -40.90625 47.453125 -43.90625 44.703125 -46.25 C 41.960938 -48.601562 38.800781 -49.78125 35.21875 -49.78125 Z M 35.21875 -49.78125 "/></g></g></g></svg>